<svg width="1rem" height="1rem" viewBox="0 0 315 317" fill="none" xmlns="http://www.w3.org/2000/svg">
<path fill-rule="evenodd" clip-rule="evenodd" d="M154.912 0.602732C193.19 -3.20868 232.127 11.3573 261.857 35.7681C290.595 59.3642 312.58 94.1064 314.04 131.261C315.376 165.244 281.26 188.307 269.1 220.067C257.931 249.238 270.857 289.433 246.16 308.557C221.508 327.647 186.091 308.379 154.912 308.492C123.569 308.604 91.3788 322.911 63.1858 309.216C32.8371 294.473 2.17271 266.95 0.0727216 233.276C-2.02982 199.56 42.0697 181.811 53.2528 149.934C63.9705 119.385 44.1777 82.3909 62.3964 55.6286C83.0945 25.2242 118.312 4.24705 154.912 0.602732Z" fill="#FAE8FF"/>
</svg>